<mxfile host="app.diagrams.net" modified="2022-11-11T19:19:02.018Z" agent="5.0 (Macintosh; Intel Mac OS X 10_14_6) AppleWebKit/537.36 (KHTML, like Gecko) Chrome/106.0.0.0 Safari/537.36" etag="pUzXLGnGJxmCf-R9Sek8" version="20.4.1" type="github">
  <diagram id="IMLMRpahWDHYKqAJVQiR" name="第 1 页">
    <mxGraphModel dx="1720" dy="971" grid="1" gridSize="10" guides="1" tooltips="1" connect="1" arrows="1" fold="1" page="1" pageScale="1" pageWidth="827" pageHeight="1169" math="0" shadow="0">
      <root>
        <mxCell id="0" />
        <mxCell id="1" parent="0" />
        <mxCell id="LWiK9OQ7Gv4r9tG603bv-12" style="edgeStyle=orthogonalEdgeStyle;rounded=0;orthogonalLoop=1;jettySize=auto;html=1;exitX=1;exitY=0.5;exitDx=0;exitDy=0;entryX=0;entryY=0.5;entryDx=0;entryDy=0;strokeWidth=3;sketch=0;fillColor=#dae8fc;strokeColor=#6c8ebf;fontStyle=1;fontSize=30;" edge="1" parent="1" source="LWiK9OQ7Gv4r9tG603bv-1" target="LWiK9OQ7Gv4r9tG603bv-2">
          <mxGeometry relative="1" as="geometry" />
        </mxCell>
        <mxCell id="LWiK9OQ7Gv4r9tG603bv-1" value="1" style="rounded=1;whiteSpace=wrap;html=1;strokeWidth=3;fillWeight=4;hachureGap=8;hachureAngle=45;fillColor=#dae8fc;sketch=0;strokeColor=#6c8ebf;fontStyle=1;fontSize=30;" vertex="1" parent="1">
          <mxGeometry x="280" y="320" width="80" height="80" as="geometry" />
        </mxCell>
        <mxCell id="LWiK9OQ7Gv4r9tG603bv-13" style="edgeStyle=orthogonalEdgeStyle;rounded=0;orthogonalLoop=1;jettySize=auto;html=1;exitX=1;exitY=0.5;exitDx=0;exitDy=0;strokeWidth=3;sketch=0;fillColor=#dae8fc;strokeColor=#6c8ebf;fontStyle=1;fontSize=30;" edge="1" parent="1" source="LWiK9OQ7Gv4r9tG603bv-2" target="LWiK9OQ7Gv4r9tG603bv-3">
          <mxGeometry relative="1" as="geometry" />
        </mxCell>
        <mxCell id="LWiK9OQ7Gv4r9tG603bv-2" value="2" style="rounded=1;whiteSpace=wrap;html=1;strokeWidth=3;fillWeight=4;hachureGap=8;hachureAngle=45;fillColor=#dae8fc;sketch=0;strokeColor=#6c8ebf;fontStyle=1;fontSize=30;" vertex="1" parent="1">
          <mxGeometry x="400" y="320" width="80" height="80" as="geometry" />
        </mxCell>
        <mxCell id="LWiK9OQ7Gv4r9tG603bv-14" style="edgeStyle=orthogonalEdgeStyle;rounded=0;orthogonalLoop=1;jettySize=auto;html=1;exitX=1;exitY=0.5;exitDx=0;exitDy=0;strokeWidth=3;sketch=0;fillColor=#dae8fc;strokeColor=#6c8ebf;fontStyle=1;fontSize=30;" edge="1" parent="1" source="LWiK9OQ7Gv4r9tG603bv-3" target="LWiK9OQ7Gv4r9tG603bv-4">
          <mxGeometry relative="1" as="geometry" />
        </mxCell>
        <mxCell id="LWiK9OQ7Gv4r9tG603bv-3" value="3" style="rounded=1;whiteSpace=wrap;html=1;strokeWidth=3;fillWeight=4;hachureGap=8;hachureAngle=45;fillColor=#dae8fc;sketch=0;strokeColor=#6c8ebf;fontStyle=1;fontSize=30;" vertex="1" parent="1">
          <mxGeometry x="520" y="320" width="80" height="80" as="geometry" />
        </mxCell>
        <mxCell id="LWiK9OQ7Gv4r9tG603bv-15" style="edgeStyle=orthogonalEdgeStyle;rounded=0;orthogonalLoop=1;jettySize=auto;html=1;exitX=1;exitY=0.5;exitDx=0;exitDy=0;entryX=0;entryY=0.5;entryDx=0;entryDy=0;strokeWidth=3;sketch=0;fillColor=#f8cecc;strokeColor=#b85450;fontStyle=1;fontSize=30;" edge="1" parent="1" source="LWiK9OQ7Gv4r9tG603bv-4" target="LWiK9OQ7Gv4r9tG603bv-5">
          <mxGeometry relative="1" as="geometry" />
        </mxCell>
        <mxCell id="LWiK9OQ7Gv4r9tG603bv-4" value="4" style="rounded=1;whiteSpace=wrap;html=1;strokeWidth=3;fillWeight=4;hachureGap=8;hachureAngle=45;fillColor=#dae8fc;sketch=0;strokeColor=#6c8ebf;fontStyle=1;fontSize=30;" vertex="1" parent="1">
          <mxGeometry x="640" y="320" width="80" height="80" as="geometry" />
        </mxCell>
        <mxCell id="LWiK9OQ7Gv4r9tG603bv-16" style="edgeStyle=orthogonalEdgeStyle;rounded=0;orthogonalLoop=1;jettySize=auto;html=1;exitX=1;exitY=0.5;exitDx=0;exitDy=0;strokeWidth=3;sketch=0;fillColor=#f8cecc;strokeColor=#b85450;fontStyle=1;fontSize=30;" edge="1" parent="1" source="LWiK9OQ7Gv4r9tG603bv-5" target="LWiK9OQ7Gv4r9tG603bv-6">
          <mxGeometry relative="1" as="geometry" />
        </mxCell>
        <mxCell id="LWiK9OQ7Gv4r9tG603bv-5" value="8" style="rounded=1;whiteSpace=wrap;html=1;strokeWidth=3;fillWeight=4;hachureGap=8;hachureAngle=45;fillColor=#f8cecc;sketch=0;strokeColor=#b85450;fontStyle=1;fontSize=30;" vertex="1" parent="1">
          <mxGeometry x="760" y="320" width="80" height="80" as="geometry" />
        </mxCell>
        <mxCell id="LWiK9OQ7Gv4r9tG603bv-17" value="" style="edgeStyle=orthogonalEdgeStyle;rounded=0;orthogonalLoop=1;jettySize=auto;html=1;strokeWidth=3;sketch=0;fillColor=#f8cecc;strokeColor=#b85450;fontStyle=1;fontSize=30;" edge="1" parent="1" source="LWiK9OQ7Gv4r9tG603bv-6" target="LWiK9OQ7Gv4r9tG603bv-7">
          <mxGeometry relative="1" as="geometry" />
        </mxCell>
        <mxCell id="LWiK9OQ7Gv4r9tG603bv-6" value="9" style="rounded=1;whiteSpace=wrap;html=1;strokeWidth=3;fillWeight=4;hachureGap=8;hachureAngle=45;fillColor=#f8cecc;sketch=0;strokeColor=#b85450;fontStyle=1;fontSize=30;" vertex="1" parent="1">
          <mxGeometry x="880" y="320" width="80" height="80" as="geometry" />
        </mxCell>
        <mxCell id="LWiK9OQ7Gv4r9tG603bv-7" value="10" style="rounded=1;whiteSpace=wrap;html=1;strokeWidth=3;fillWeight=4;hachureGap=8;hachureAngle=45;fillColor=#f8cecc;sketch=0;strokeColor=#b85450;fontStyle=1;fontSize=30;" vertex="1" parent="1">
          <mxGeometry x="1000" y="320" width="80" height="80" as="geometry" />
        </mxCell>
        <mxCell id="LWiK9OQ7Gv4r9tG603bv-8" value="" style="rounded=1;whiteSpace=wrap;html=1;strokeWidth=3;fillWeight=4;hachureGap=8;hachureAngle=45;fillColor=#fff2cc;sketch=0;strokeColor=#d6b656;fontStyle=1;fontSize=15;" vertex="1" parent="1">
          <mxGeometry x="1120.5" y="41" width="120" height="280" as="geometry" />
        </mxCell>
        <mxCell id="LWiK9OQ7Gv4r9tG603bv-24" style="edgeStyle=orthogonalEdgeStyle;rounded=0;orthogonalLoop=1;jettySize=auto;html=1;strokeWidth=3;sketch=0;fillColor=#dae8fc;strokeColor=#6c8ebf;fontStyle=1;fontSize=15;" edge="1" parent="1" source="LWiK9OQ7Gv4r9tG603bv-18" target="LWiK9OQ7Gv4r9tG603bv-1">
          <mxGeometry relative="1" as="geometry" />
        </mxCell>
        <mxCell id="LWiK9OQ7Gv4r9tG603bv-18" value="head" style="rounded=1;whiteSpace=wrap;html=1;strokeWidth=3;fillWeight=4;hachureGap=8;hachureAngle=45;fillColor=#dae8fc;sketch=0;strokeColor=#6c8ebf;fontStyle=1;fontSize=15;" vertex="1" parent="1">
          <mxGeometry x="1141.5" y="64" width="80" height="40" as="geometry" />
        </mxCell>
        <mxCell id="LWiK9OQ7Gv4r9tG603bv-25" style="edgeStyle=orthogonalEdgeStyle;rounded=0;orthogonalLoop=1;jettySize=auto;html=1;entryX=0.5;entryY=0;entryDx=0;entryDy=0;strokeWidth=3;sketch=0;fillColor=#dae8fc;strokeColor=#6c8ebf;fontStyle=1;fontSize=15;" edge="1" parent="1" source="LWiK9OQ7Gv4r9tG603bv-19" target="LWiK9OQ7Gv4r9tG603bv-4">
          <mxGeometry relative="1" as="geometry" />
        </mxCell>
        <mxCell id="LWiK9OQ7Gv4r9tG603bv-19" value="tail" style="rounded=1;whiteSpace=wrap;html=1;strokeWidth=3;fillWeight=4;hachureGap=8;hachureAngle=45;fillColor=#dae8fc;sketch=0;strokeColor=#6c8ebf;fontStyle=1;fontSize=15;" vertex="1" parent="1">
          <mxGeometry x="1141.5" y="124" width="80" height="40" as="geometry" />
        </mxCell>
        <mxCell id="LWiK9OQ7Gv4r9tG603bv-27" style="edgeStyle=orthogonalEdgeStyle;rounded=0;orthogonalLoop=1;jettySize=auto;html=1;entryX=0.5;entryY=0;entryDx=0;entryDy=0;strokeWidth=3;sketch=0;fillColor=#f8cecc;strokeColor=#b85450;fontStyle=1;fontSize=15;" edge="1" parent="1" source="LWiK9OQ7Gv4r9tG603bv-20" target="LWiK9OQ7Gv4r9tG603bv-7">
          <mxGeometry relative="1" as="geometry" />
        </mxCell>
        <mxCell id="LWiK9OQ7Gv4r9tG603bv-20" value="tail" style="rounded=1;whiteSpace=wrap;html=1;strokeWidth=3;fillWeight=4;hachureGap=8;hachureAngle=45;fillColor=#f8cecc;sketch=0;strokeColor=#b85450;fontStyle=1;fontSize=15;" vertex="1" parent="1">
          <mxGeometry x="1141.5" y="244" width="80" height="40" as="geometry" />
        </mxCell>
        <mxCell id="LWiK9OQ7Gv4r9tG603bv-26" style="edgeStyle=orthogonalEdgeStyle;rounded=0;orthogonalLoop=1;jettySize=auto;html=1;entryX=0.5;entryY=0;entryDx=0;entryDy=0;strokeWidth=3;sketch=0;fillColor=#f8cecc;strokeColor=#b85450;fontStyle=1;fontSize=15;" edge="1" parent="1" source="LWiK9OQ7Gv4r9tG603bv-21" target="LWiK9OQ7Gv4r9tG603bv-5">
          <mxGeometry relative="1" as="geometry" />
        </mxCell>
        <mxCell id="LWiK9OQ7Gv4r9tG603bv-21" value="head" style="rounded=1;whiteSpace=wrap;html=1;strokeWidth=3;fillWeight=4;hachureGap=8;hachureAngle=45;fillColor=#f8cecc;sketch=0;strokeColor=#b85450;fontStyle=1;fontSize=15;" vertex="1" parent="1">
          <mxGeometry x="1141.5" y="184" width="80" height="40" as="geometry" />
        </mxCell>
        <mxCell id="LWiK9OQ7Gv4r9tG603bv-29" value="" style="shape=curlyBracket;whiteSpace=wrap;html=1;rounded=1;sketch=0;strokeColor=#330000;strokeWidth=3;fontSize=30;rotation=-90;" vertex="1" parent="1">
          <mxGeometry x="490" y="260" width="20" height="360" as="geometry" />
        </mxCell>
        <mxCell id="LWiK9OQ7Gv4r9tG603bv-31" value="" style="shape=curlyBracket;whiteSpace=wrap;html=1;rounded=1;sketch=0;strokeColor=#330000;strokeWidth=3;fontSize=30;rotation=-90;" vertex="1" parent="1">
          <mxGeometry x="910" y="320" width="20" height="240" as="geometry" />
        </mxCell>
        <mxCell id="LWiK9OQ7Gv4r9tG603bv-33" value="young" style="text;html=1;align=center;verticalAlign=middle;resizable=0;points=[];autosize=1;strokeColor=none;fillColor=none;fontSize=30;" vertex="1" parent="1">
          <mxGeometry x="445" y="445" width="110" height="50" as="geometry" />
        </mxCell>
        <mxCell id="LWiK9OQ7Gv4r9tG603bv-34" value="old" style="text;html=1;align=center;verticalAlign=middle;resizable=0;points=[];autosize=1;strokeColor=none;fillColor=none;fontSize=30;" vertex="1" parent="1">
          <mxGeometry x="890" y="445" width="60" height="50" as="geometry" />
        </mxCell>
      </root>
    </mxGraphModel>
  </diagram>
</mxfile>
